# xmcd
# Track frame offsets:
# 150
# 13517
# 23165
# 37397
# 50050
# 61595
# 73582
# 86717
# 98835
# 109704
# 120025
# 131537
# 144215
# 157300
# 169892
# 181717
# 193275
# 205307
# 217710
# 230462
# 243295
# 253730
# 265985
#
# Disc length: 3712 seconds
# Revision: 0
# Processed by: cddbd v1.4PL0 Copyright (c) Steve Scherf et al.
# Submitted via: VisiTrax 2.9.5.180 - For more info visit www.synapsa.com
#
DISCID=420e7e17
DTITLE=Lightnin' Hopkins - The Complete First Recordings Vol 1 1946-1947 (194
DTITLE=8)
DYEAR=2000
DGENRE=Blues
TTITLE0=Katie Mae
TTITLE1=Feel So Bad
TTITLE2=Blues
TTITLE3=I Can't Stay Here In Your Town
TTITLE4=Can't Do Like You Used To
TTITLE5=West Coast Blues
TTITLE6=L.A.Blues
TTITLE7=Big Mama Jump
TTITLE8=Short Haired Woman
TTITLE9=Down Baby
TTITLE10=Let Me Play With Your Poodle
TTITLE11=Fast Mail Rambler
TTITLE12=Thinkin' And Worryin'
TTITLE13=Short Haired Woman
TTITLE14=Short Haired Woman
TTITLE15=Big Mama Jump
TTITLE16=Can't Get That Woman Off My Mind
TTITLE17=Woman Woman
TTITLE18=Picture On The Wall
TTITLE19=You're Not Goin' To Worry My Life Anymore
TTITLE20=You're Gonna Miss Me
TTITLE21=Sugar On My Mind
TTITLE22=Nightmare Blues
EXTD=Blues Collections 159782 ZE 052
EXTT0=
EXTT1=
EXTT2=
EXTT3=
EXTT4=
EXTT5=
EXTT6=
EXTT7=
EXTT8=
EXTT9=
EXTT10=
EXTT11=
EXTT12=
EXTT13=
EXTT14=
EXTT15=
EXTT16=
EXTT17=
EXTT18=
EXTT19=
EXTT20=
EXTT21=
EXTT22=
PLAYORDER=
